<svg id="outline" height="512" viewBox="0 0 512 512" width="512" xmlns="http://www.w3.org/2000/svg"><path d="m336 16h-224a24.0275 24.0275 0 0 0 -24 24v416a40.04584 40.04584 0 0 0 40 40h256a40.04584 40.04584 0 0 0 40-40v-80a24.0275 24.0275 0 0 0 -24-24h-40v-312a24.0275 24.0275 0 0 0 -24-24zm-208 464a24.0275 24.0275 0 0 1 -24-24v-416a8.00917 8.00917 0 0 1 8-8h224a8.00917 8.00917 0 0 1 8 8v416a39.79739 39.79739 0 0 0 8.01855 24zm272-112a8.00917 8.00917 0 0 1 8 8v80a24 24 0 0 1 -48 0v-88z"/><path d="m216 88h56v16h-56z"/><path d="m176 88h24v16h-24z"/><path d="m232 56h24v16h-24z"/><path d="m192 56h24v16h-24z"/><path d="m176 144h-32a8.00039 8.00039 0 0 0 -8 8v32a8.00039 8.00039 0 0 0 8 8h32a8.00039 8.00039 0 0 0 8-8v-32a8.00039 8.00039 0 0 0 -8-8zm-8 32h-16v-16h16z"/><path d="m200 160h16v16h-16z"/><path d="m232 160h80v16h-80z"/><path d="m232 192h16v16h-16z"/><path d="m264 192h48v16h-48z"/><path d="m232 256h16v16h-16z"/><path d="m264 256h48v16h-48z"/><path d="m232 320h16v16h-16z"/><path d="m264 320h48v16h-48z"/><path d="m232 384h16v16h-16z"/><path d="m264 384h48v16h-48z"/><path d="m232 440h32v16h-32z"/><path d="m280 440h32v16h-32z"/><path d="m176 208h-32a8.00039 8.00039 0 0 0 -8 8v32a8.00039 8.00039 0 0 0 8 8h32a8.00039 8.00039 0 0 0 8-8v-32a8.00039 8.00039 0 0 0 -8-8zm-8 32h-16v-16h16z"/><path d="m176 272h-32a8.00039 8.00039 0 0 0 -8 8v32a8.00039 8.00039 0 0 0 8 8h32a8.00039 8.00039 0 0 0 8-8v-32a8.00039 8.00039 0 0 0 -8-8zm-8 32h-16v-16h16z"/><path d="m176 336h-32a8.00039 8.00039 0 0 0 -8 8v32a8.00039 8.00039 0 0 0 8 8h32a8.00039 8.00039 0 0 0 8-8v-32a8.00039 8.00039 0 0 0 -8-8zm-8 32h-16v-16h16z"/><path d="m200 224h16v16h-16z"/><path d="m232 224h80v16h-80z"/><path d="m200 288h16v16h-16z"/><path d="m232 288h80v16h-80z"/><path d="m200 352h16v16h-16z"/><path d="m232 352h80v16h-80z"/></svg>